<svg xmlns="http://www.w3.org/2000/svg" viewBox="0 0 120 120" width="120" height="120">
  
  <!-- Instagram Color Gradient Background -->
  <defs>
    <linearGradient id="instaGrad" x1="0%" y1="100%" x2="100%" y2="0%">
      <stop offset="0%" stop-color="#FFB13B" />    <!-- Yellow/Orange -->
      <stop offset="30%" stop-color="#DD2A7B" />   <!-- Pink -->
      <stop offset="60%" stop-color="#D2297D" />   <!-- Pinkish-Purple -->
      <stop offset="100%" stop-color="#515BD4" />  <!-- Deep Purple/Blue -->
    </linearGradient>
  </defs>

  <!-- The rounded square background -->
  <rect x="0" y="0" width="120" height="120" rx="28" ry="28" fill="url(#instaGrad)" />

  <!-- The Outer White Camera Body Ring -->
  <path d="M 60 25 C 46 25 42 25 36 27 C 31 29 27 33 25 38 C 23 44 23 48 23 60 C 23 72 23 76 25 82 C 27 87 31 91 36 93 C 42 95 46 95 60 95 C 74 95 78 95 84 93 C 89 91 93 87 95 82 C 97 76 97 72 97 60 C 97 48 97 44 95 38 C 93 33 89 29 84 27 C 78 25 74 25 60 25 Z M 60 29 C 73.5 29 77.5 29 83 31 C 86.5 32 89 34.5 90.5 38 C 92.5 43.5 92.5 47.5 92.5 60 C 92.5 72.5 92.5 76.5 90.5 82 C 89 85.5 86.5 88 83 89.5 C 77.5 91.5 73.5 91.5 60 91.5 C 46.5 91.5 42.5 91.5 37 89.5 C 33.5 88 31 85.5 29.5 82 C 27.5 76.5 27.5 72.5 27.5 60 C 27.5 47.5 27.5 43.5 29.5 38 C 31 34.5 33.5 32 37 30.5 C 42.5 28.5 46.5 29 60 29 Z" fill="#FFFFFF" />

  <!-- The Inner White Circle (Lens) -->
  <path d="M 60 40 C 49 40 40 49 40 60 C 40 71 49 80 60 80 C 71 80 80 71 80 60 C 80 49 71 40 60 40 Z M 60 76 C 51.2 76 44 68.8 44 60 C 44 51.2 51.2 44 60 44 C 68.8 44 76 51.2 76 60 C 76 68.8 68.8 76 60 76 Z" fill="#FFFFFF" />

  <!-- The Small White Flash Dot (Top Right) -->
  <circle cx="83" cy="37" r="3.5" fill="#FFFFFF" />

</svg>